<svg width="20" height="20" viewBox="0 0 20 20" fill="none" xmlns="http://www.w3.org/2000/svg">
<ellipse cx="9.875" cy="9.9" rx="9.875" ry="9.9" fill="#FB8E7E"/>
<path d="M5.99052 13.7041C5.36652 13.7041 4.80252 13.5661 4.29852 13.2901C3.80052 13.0141 3.40752 12.6331 3.11952 12.1471C2.83752 11.6551 2.69652 11.1061 2.69652 10.5001C2.69652 9.89415 2.83752 9.34815 3.11952 8.86215C3.40752 8.37015 3.80352 7.98615 4.30752 7.71015C4.81152 7.43415 5.37552 7.29615 5.99952 7.29615C6.46752 7.29615 6.89952 7.37415 7.29552 7.53015C7.69152 7.68615 8.02752 7.91415 8.30352 8.21415L7.88052 8.63715C7.38852 8.13915 6.76752 7.89015 6.01752 7.89015C5.51952 7.89015 5.06652 8.00415 4.65852 8.23215C4.25052 8.46015 3.92952 8.77215 3.69552 9.16815C3.46752 9.56415 3.35352 10.0081 3.35352 10.5001C3.35352 10.9921 3.46752 11.4361 3.69552 11.8321C3.92952 12.2281 4.25052 12.5401 4.65852 12.7681C5.06652 12.9961 5.51952 13.1101 6.01752 13.1101C6.77352 13.1101 7.39452 12.8581 7.88052 12.3541L8.30352 12.7771C8.02752 13.0771 7.68852 13.3081 7.28652 13.4701C6.89052 13.6261 6.45852 13.7041 5.99052 13.7041ZM10.9992 7.35015V13.6501H10.3512V7.92615H8.86616V7.35015H10.9992ZM14.4671 7.29615C15.3011 7.29615 15.9401 7.57215 16.3841 8.12415C16.8281 8.67015 17.0501 9.44415 17.0501 10.4461C17.0501 11.1481 16.9301 11.7421 16.6901 12.2281C16.4501 12.7141 16.1141 13.0831 15.6821 13.3351C15.2501 13.5811 14.7461 13.7041 14.1701 13.7041C13.5461 13.7041 13.0481 13.5901 12.6761 13.3621L12.9371 12.8401C13.2371 13.0381 13.6451 13.1371 14.1611 13.1371C14.8571 13.1371 15.4031 12.9181 15.7991 12.4801C16.1951 12.0361 16.3931 11.3941 16.3931 10.5541C16.3931 10.3981 16.3841 10.2271 16.3661 10.0411C16.2101 10.3831 15.9611 10.6501 15.6191 10.8421C15.2771 11.0281 14.8841 11.1211 14.4401 11.1211C14.0261 11.1211 13.6571 11.0431 13.3331 10.8871C13.0151 10.7311 12.7661 10.5121 12.5861 10.2301C12.4061 9.94215 12.3161 9.60915 12.3161 9.23115C12.3161 8.84715 12.4091 8.50815 12.5951 8.21415C12.7811 7.92015 13.0361 7.69515 13.3601 7.53915C13.6901 7.37715 14.0591 7.29615 14.4671 7.29615ZM14.5391 10.5721C14.8571 10.5721 15.1361 10.5121 15.3761 10.3921C15.6221 10.2721 15.8141 10.1071 15.9521 9.89715C16.0901 9.68715 16.1591 9.45315 16.1591 9.19515C16.1591 8.95515 16.0931 8.73315 15.9611 8.52915C15.8351 8.32515 15.6461 8.16015 15.3941 8.03415C15.1421 7.90815 14.8421 7.84515 14.4941 7.84515C14.0381 7.84515 13.6661 7.97115 13.3781 8.22315C13.0961 8.46915 12.9551 8.79915 12.9551 9.21315C12.9551 9.62715 13.0961 9.95715 13.3781 10.2031C13.6661 10.4491 14.0531 10.5721 14.5391 10.5721Z" fill="white"/>
</svg>
