<svg width="40" height="40" viewBox="0 0 40 40" fill="none" xmlns="http://www.w3.org/2000/svg">
<circle cx="20" cy="20" r="20" fill="#FB8E7E"/>
<path d="M13.5259 26.09C12.4859 26.09 11.5459 25.86 10.7059 25.4C9.87586 24.94 9.22086 24.305 8.74086 23.495C8.27086 22.675 8.03586 21.76 8.03586 20.75C8.03586 19.74 8.27086 18.83 8.74086 18.02C9.22086 17.2 9.88086 16.56 10.7209 16.1C11.5609 15.64 12.5009 15.41 13.5409 15.41C14.3209 15.41 15.0409 15.54 15.7009 15.8C16.3609 16.06 16.9209 16.44 17.3809 16.94L16.6759 17.645C15.8559 16.815 14.8209 16.4 13.5709 16.4C12.7409 16.4 11.9859 16.59 11.3059 16.97C10.6259 17.35 10.0909 17.87 9.70086 18.53C9.32086 19.19 9.13086 19.93 9.13086 20.75C9.13086 21.57 9.32086 22.31 9.70086 22.97C10.0909 23.63 10.6259 24.15 11.3059 24.53C11.9859 24.91 12.7409 25.1 13.5709 25.1C14.8309 25.1 15.8659 24.68 16.6759 23.84L17.3809 24.545C16.9209 25.045 16.3559 25.43 15.6859 25.7C15.0259 25.96 14.3059 26.09 13.5259 26.09ZM21.8736 15.5V26H20.7936V16.46H18.3186V15.5H21.8736ZM27.6535 15.41C29.0435 15.41 30.1085 15.87 30.8485 16.79C31.5885 17.7 31.9585 18.99 31.9585 20.66C31.9585 21.83 31.7585 22.82 31.3585 23.63C30.9585 24.44 30.3985 25.055 29.6785 25.475C28.9585 25.885 28.1185 26.09 27.1585 26.09C26.1185 26.09 25.2885 25.9 24.6685 25.52L25.1035 24.65C25.6035 24.98 26.2835 25.145 27.1435 25.145C28.3035 25.145 29.2135 24.78 29.8735 24.05C30.5335 23.31 30.8635 22.24 30.8635 20.84C30.8635 20.58 30.8485 20.295 30.8185 19.985C30.5585 20.555 30.1435 21 29.5735 21.32C29.0035 21.63 28.3485 21.785 27.6085 21.785C26.9185 21.785 26.3035 21.655 25.7635 21.395C25.2335 21.135 24.8185 20.77 24.5185 20.3C24.2185 19.82 24.0685 19.265 24.0685 18.635C24.0685 17.995 24.2235 17.43 24.5335 16.94C24.8435 16.45 25.2685 16.075 25.8085 15.815C26.3585 15.545 26.9735 15.41 27.6535 15.41ZM27.7735 20.87C28.3035 20.87 28.7685 20.77 29.1685 20.57C29.5785 20.37 29.8985 20.095 30.1285 19.745C30.3585 19.395 30.4735 19.005 30.4735 18.575C30.4735 18.175 30.3635 17.805 30.1435 17.465C29.9335 17.125 29.6185 16.85 29.1985 16.64C28.7785 16.43 28.2785 16.325 27.6985 16.325C26.9385 16.325 26.3185 16.535 25.8385 16.955C25.3685 17.365 25.1335 17.915 25.1335 18.605C25.1335 19.295 25.3685 19.845 25.8385 20.255C26.3185 20.665 26.9635 20.87 27.7735 20.87Z" fill="white"/>
</svg>
